<svg width="25" height="25" viewBox="0 0 25 25" fill="none" xmlns="http://www.w3.org/2000/svg">
<path d="M9.77507 11.55L10.0688 9.85005C10.1063 9.65005 10.0376 9.43755 9.88757 9.2938L8.65007 8.08755C8.28132 7.72505 8.48132 7.0938 8.99382 7.0188L10.7001 6.7688C10.9063 6.73755 11.0813 6.61255 11.1688 6.42505L11.9313 4.8813C12.1626 4.4188 12.8251 4.4188 13.0501 4.8813L13.8126 6.4313C13.9063 6.6188 14.0813 6.7438 14.2813 6.77505L15.9876 7.02505C16.5001 7.10005 16.7063 7.7313 16.3313 8.0938L15.0938 9.30005C14.9438 9.4438 14.8813 9.65005 14.9126 9.85005L15.2063 11.55C15.2938 12.0625 14.7563 12.45 14.3001 12.2063L12.7751 11.4063C12.5938 11.3125 12.3751 11.3125 12.1938 11.4063L10.6688 12.2063C10.2126 12.45 9.67507 12.0563 9.76257 11.55H9.77507ZM12.5001 10.0813C12.8001 10.0813 13.1001 10.15 13.3751 10.3L13.7813 10.5125L13.7063 10.0625C13.6001 9.4563 13.8063 8.8313 14.2438 8.4063L14.5751 8.08755L14.1188 8.0188C13.5063 7.9313 12.9813 7.55005 12.7063 6.9938L12.5001 6.5813L12.3001 6.9938C12.0251 7.55005 11.5001 7.9313 10.8876 8.0188L10.4313 8.08755L10.7626 8.4063C11.2063 8.83755 11.4063 9.4563 11.3001 10.0688L11.2251 10.5188L11.6313 10.3063C11.9063 10.1625 12.2063 10.0938 12.5063 10.0938L12.5001 10.0813Z" fill="#E50300"/>
<path d="M6.32507 15.25L5.85632 14.3938C5.80007 14.2875 5.71257 14.2063 5.60632 14.1438L4.75007 13.675C4.31882 13.4375 4.31882 12.8125 4.75007 12.5813L5.60632 12.1125C5.71257 12.0563 5.80007 11.9688 5.85632 11.8625L6.32507 11.0063C6.56257 10.575 7.18757 10.575 7.41882 11.0063L7.88757 11.8625C7.94382 11.9688 8.03132 12.0563 8.13757 12.1125L8.99382 12.5813C9.42507 12.8188 9.42507 13.4438 8.99382 13.675L8.13757 14.1438C8.03132 14.2 7.94382 14.2875 7.88757 14.3938L7.41882 15.25C7.18132 15.6813 6.55632 15.6813 6.32507 15.25ZM6.34382 13.125C6.55632 13.2625 6.73757 13.4438 6.87507 13.6563C7.01257 13.4438 7.19382 13.2625 7.40632 13.125C7.19382 12.9875 7.01257 12.8063 6.87507 12.5938C6.73757 12.8063 6.55632 12.9875 6.34382 13.125Z" fill="#E50300"/>
<path d="M18.2001 15.25L17.7313 14.3938C17.6751 14.2875 17.5876 14.2063 17.4813 14.1438L16.6251 13.675C16.1938 13.4375 16.1938 12.8125 16.6251 12.5813L17.4813 12.1125C17.5876 12.0563 17.6751 11.9688 17.7313 11.8625L18.2001 11.0063C18.4376 10.575 19.0626 10.575 19.2938 11.0063L19.7626 11.8625C19.8188 11.9688 19.9063 12.0563 20.0126 12.1125L20.8688 12.5813C21.3001 12.8188 21.3001 13.4438 20.8688 13.675L20.0126 14.1438C19.9063 14.2 19.8188 14.2875 19.7626 14.3938L19.2938 15.25C19.0563 15.6813 18.4313 15.6813 18.2001 15.25ZM18.2188 13.125C18.4313 13.2625 18.6126 13.4438 18.7501 13.6563C18.8876 13.4438 19.0688 13.2625 19.2813 13.125C19.0688 12.9875 18.8876 12.8063 18.7501 12.5938C18.6126 12.8063 18.4313 12.9875 18.2188 13.125Z" fill="#E50300"/>
<path d="M6.87512 6.25024C7.2203 6.25024 7.50012 5.97042 7.50012 5.62524C7.50012 5.28007 7.2203 5.00024 6.87512 5.00024C6.52994 5.00024 6.25012 5.28007 6.25012 5.62524C6.25012 5.97042 6.52994 6.25024 6.87512 6.25024Z" fill="#FFCC17"/>
<path d="M18.7501 6.25024C19.0953 6.25024 19.3751 5.97042 19.3751 5.62524C19.3751 5.28007 19.0953 5.00024 18.7501 5.00024C18.4049 5.00024 18.1251 5.28007 18.1251 5.62524C18.1251 5.97042 18.4049 6.25024 18.7501 6.25024Z" fill="#FFCC17"/>
<path d="M4.37512 9.37524C4.7203 9.37524 5.00012 9.09542 5.00012 8.75024C5.00012 8.40507 4.7203 8.12524 4.37512 8.12524C4.02994 8.12524 3.75012 8.40507 3.75012 8.75024C3.75012 9.09542 4.02994 9.37524 4.37512 9.37524Z" fill="#FFCC17"/>
<path d="M21.2501 9.37524C21.5953 9.37524 21.8751 9.09542 21.8751 8.75024C21.8751 8.40507 21.5953 8.12524 21.2501 8.12524C20.9049 8.12524 20.6251 8.40507 20.6251 8.75024C20.6251 9.09542 20.9049 9.37524 21.2501 9.37524Z" fill="#FFCC17"/>
<path d="M11.8751 20.6252C11.8751 20.969 12.1564 21.2502 12.5001 21.2502C12.8439 21.2502 13.1251 20.969 13.1251 20.6252V15.0002C13.1251 14.6565 12.8439 14.3752 12.5001 14.3752C12.1564 14.3752 11.8751 14.6565 11.8751 15.0002V20.6252Z" fill="#FFCC17"/>
<path d="M7.76262 18.069C7.61887 17.7565 7.75012 17.3815 8.06262 17.2377C8.37512 17.094 8.75012 17.2252 8.89387 17.5377L10.2126 20.369C10.3564 20.6815 10.2251 21.0565 9.91262 21.2002C9.60012 21.344 9.22512 21.2127 9.08137 20.9002L7.76262 18.069Z" fill="#FFCC17"/>
<path d="M17.7189 18.069C17.8626 17.7565 17.7314 17.3815 17.4189 17.2377C17.1064 17.094 16.7314 17.2252 16.5876 17.5377L15.2689 20.369C15.1251 20.6815 15.2564 21.0565 15.5689 21.2002C15.8814 21.344 16.2564 21.2127 16.4001 20.9002L17.7189 18.069Z" fill="#FFCC17"/>
<path d="M4.81887 19.819C4.57512 19.5752 4.57512 19.1815 4.81887 18.9377C5.06262 18.694 5.45637 18.694 5.70012 18.9377L7.02512 20.2627C7.26887 20.5065 7.26887 20.9002 7.02512 21.144C6.78137 21.3877 6.38762 21.3877 6.14387 21.144L4.81887 19.819Z" fill="#FFCC17"/>
<path d="M20.7751 19.819C21.0189 19.5752 21.0189 19.1815 20.7751 18.9377C20.5314 18.694 20.1376 18.694 19.8939 18.9377L18.5689 20.2627C18.3251 20.5065 18.3251 20.9002 18.5689 21.144C18.8126 21.3877 19.2064 21.3877 19.4501 21.144L20.7751 19.819Z" fill="#FFCC17"/>
</svg>
