<svg width="16" height="11" viewBox="0 0 16 11" fill="none" xmlns="http://www.w3.org/2000/svg">
<path fill-rule="evenodd" clip-rule="evenodd" d="M9.89097 0.0776669H15.0687C15.1526 0.0780047 15.233 0.111498 15.2923 0.170849C15.3517 0.230201 15.3852 0.310602 15.3855 0.394537V3.91475H15.4163C15.5086 3.91509 15.5971 3.952 15.6622 4.0174C15.7274 4.08281 15.764 4.17137 15.764 4.26369V4.64855C15.7636 4.74236 15.7262 4.83222 15.6599 4.89855C15.5936 4.96488 15.5037 5.00229 15.4099 5.00263H12.9635C14.7813 5.16427 15.8204 6.8551 15.7075 9.05395H14.0898C14.0615 9.54426 13.8467 10.0052 13.4896 10.3423C13.1324 10.6794 12.6599 10.8672 12.1687 10.8672C11.6776 10.8672 11.205 10.6794 10.8479 10.3423C10.4907 10.0052 10.276 9.54426 10.2476 9.05395H5.37297C5.37321 9.01974 5.37311 8.98553 5.37268 8.95132V9.05395H5.37297C5.37148 9.26843 5.35682 9.48264 5.32907 9.69539L4.31431 9.21687C4.28566 9.53073 4.1818 9.83306 4.01153 10.0983C3.84126 10.3635 3.6096 10.5838 3.33615 10.7405C3.0627 10.8971 2.75552 10.9856 2.44061 10.9984C2.12571 11.0113 1.81236 10.948 1.52709 10.814C1.24182 10.68 0.993032 10.4793 0.801792 10.2288C0.610552 9.97828 0.48249 9.68538 0.42845 9.37489C0.37441 9.06439 0.395982 8.74545 0.491341 8.44506C0.5867 8.14466 0.753037 7.87167 0.976268 7.6492L0 7.18352C0.811065 6.26115 1.79052 5.87203 2.97272 6.13446L2.97242 6.13669C3.23664 6.20142 3.37696 6.23592 3.43184 6.24941C3.45096 6.25411 3.4597 6.25626 3.45971 6.25625C3.45971 6.25625 3.45354 6.25471 3.44216 6.25189C3.38347 6.23732 3.18617 6.18833 2.98269 6.13669L2.97272 6.13446C3.17908 4.58483 3.63609 3.07906 4.32586 1.67613L3.72034 1.66715C3.68745 1.66715 3.65414 1.66926 3.62133 1.67133C3.52619 1.67735 3.43531 1.68311 3.3714 1.63636C3.29505 1.63082 3.22128 1.60634 3.15677 1.56512C3.09226 1.52391 3.03904 1.46726 3.00193 1.40031C2.91452 1.25344 2.87007 1.08498 2.87364 0.914102C2.87011 0.74282 2.91454 0.573963 3.00193 0.426609C3.06022 0.327481 3.1508 0.251392 3.2585 0.211086C3.25657 0.19833 3.25657 0.185355 3.2585 0.1726C3.37428 -0.0161861 3.58164 -0.00569135 3.78957 0.00483264C3.83739 0.00725281 3.88524 0.00967453 3.93201 0.00967453L4.17576 0.025069C4.3564 0.049837 4.53061 0.109067 4.68891 0.19954L4.96729 0.356051H5.19308L5.95254 0.502299C5.97227 0.506183 5.99065 0.509627 6.00775 0.51283C6.20527 0.549838 6.23146 0.554745 6.17833 0.834564C6.17047 0.873651 6.16019 0.912212 6.14754 0.950022C6.08924 1.12393 6.04354 1.11115 5.91292 1.07464L5.91291 1.07464C5.87684 1.06456 5.83429 1.05266 5.7832 1.04239L5.07377 0.897424C5.10071 1.18351 5.00963 1.53886 4.88262 1.94297C5.2893 2.28806 5.47403 2.7794 5.19436 3.42854L4.517 5.51578C5.65363 6.32142 6.33612 7.05523 6.37589 8.24702H7.81656C8.7428 7.54529 8.58629 6.29577 7.57281 5.49782V5.00263V4.25343C7.57281 4.01481 7.7011 3.90705 7.93843 3.91475H9.5741V0.394537C9.57444 0.310602 9.60793 0.230201 9.66728 0.170849C9.72663 0.111498 9.80704 0.0780047 9.89097 0.0776669ZM3.12508 8.66267L2.15651 8.20982C1.98223 8.25053 1.82493 8.34448 1.70646 8.47864C1.58798 8.61279 1.5142 8.78049 1.49534 8.95848C1.47648 9.13646 1.51349 9.3159 1.60123 9.4719C1.68896 9.6279 1.82308 9.75273 1.98496 9.82906C2.14685 9.90539 2.32848 9.92945 2.50465 9.89789C2.68083 9.86633 2.84281 9.78072 2.96813 9.65293C3.09345 9.52515 3.17589 9.36153 3.20402 9.18477C3.23214 9.00802 3.20456 8.82689 3.12508 8.66652V8.66267ZM3.2662 0.418912C3.27775 0.743479 3.29827 1.16041 3.31367 1.44521C3.28342 1.41821 3.25708 1.38712 3.23541 1.35285C3.15689 1.21835 3.11736 1.06466 3.12124 0.90897C3.11733 0.753685 3.15687 0.600395 3.23541 0.466378L3.23542 0.466372C3.24568 0.450979 3.25594 0.435587 3.2662 0.42276V0.418912ZM13.0148 9.05651C13.0063 9.2752 12.9134 9.4821 12.7557 9.63381C12.5979 9.78552 12.3876 9.87026 12.1687 9.87026C11.9499 9.87026 11.7395 9.78552 11.5818 9.63381C11.424 9.4821 11.3312 9.2752 11.3227 9.05651H13.0148ZM10.2978 2.42266V2.7382C10.2978 2.7467 10.3045 2.76087 10.3045 2.76087C10.3045 2.76087 10.3146 2.77026 10.3207 2.77026L14.8932 2.76674C14.8993 2.76674 14.9051 2.76336 14.9094 2.75734C14.9137 2.75133 14.9161 2.74318 14.9161 2.73468V2.41914C14.9163 2.41479 14.9158 2.41044 14.9147 2.40635C14.9137 2.40227 14.912 2.39853 14.9099 2.39537C14.9077 2.39221 14.9051 2.3897 14.9023 2.38799C14.8994 2.38627 14.8963 2.38539 14.8932 2.38539L10.3207 2.38892C10.3176 2.38891 10.3145 2.38979 10.3117 2.39151C10.3088 2.39322 10.3062 2.39574 10.3041 2.39889C10.3019 2.40205 10.3003 2.40579 10.2992 2.40988C10.2981 2.41396 10.2977 2.41831 10.2978 2.42266ZM11.5812 1.58354V1.268C11.5811 1.26365 11.5814 1.2593 11.5822 1.25522C11.583 1.25113 11.5842 1.24739 11.5857 1.24424C11.5873 1.24108 11.5891 1.23856 11.5912 1.23685C11.5933 1.23513 11.5955 1.23425 11.5977 1.23426L14.9001 1.23074C14.9024 1.23073 14.9046 1.23161 14.9067 1.23333C14.9087 1.23504 14.9106 1.23756 14.9121 1.24071C14.9137 1.24387 14.9149 1.24761 14.9156 1.25169C14.9164 1.25578 14.9168 1.26013 14.9166 1.26448V1.58002C14.9166 1.58852 14.9149 1.59667 14.9118 1.60269C14.9087 1.6087 14.9045 1.61208 14.9001 1.61208L11.5977 1.6156C11.5934 1.6156 11.5861 1.60621 11.5861 1.60621C11.5861 1.60621 11.5812 1.59204 11.5812 1.58354Z" fill="#BF7300"/>
</svg>
