<svg width="20" height="21" viewBox="0 0 20 21" fill="none" xmlns="http://www.w3.org/2000/svg">
<g clip-path="url(#clip0_1_1856)">
<mask id="mask0_1_1856" style="mask-type:luminance" maskUnits="userSpaceOnUse" x="0" y="0" width="20" height="21">
<path d="M20 0.517151H0V20.5172H20V0.517151Z" fill="white"/>
</mask>
<g mask="url(#mask0_1_1856)">
<path d="M13.6667 3.91049C12.6667 3.06299 11.6367 2.18382 10.5942 1.14466L9.99999 0.554657L9.41666 1.14549C7.53999 3.02716 6.65332 5.91632 6.26832 7.64966C5.97363 7.19291 5.75496 6.6914 5.62082 6.16466L5.26832 4.80382L4.24332 5.76716C2.44749 7.45299 1.24999 9.12549 1.24999 11.8038C1.23322 13.7357 1.86242 15.6178 3.03767 17.1512C4.21291 18.6845 5.8668 19.7813 7.73666 20.2672C8.30005 20.4042 8.87508 20.4879 9.45416 20.5172C9.63521 20.5401 9.81749 20.552 9.99999 20.553C10.0958 20.553 10.1892 20.5447 10.2825 20.5388C12.5526 20.4705 14.7068 19.5203 16.2877 17.8897C17.8686 16.2591 18.7519 14.0766 18.75 11.8055C18.75 8.22716 16.3942 6.22716 13.6667 3.91049ZM10.1667 18.8722C10.0833 18.8722 9.99999 18.8805 9.91165 18.8797C9.16159 18.8567 8.44981 18.5431 7.9267 18.0051C7.4036 17.4671 7.11013 16.7467 7.10832 15.9963C7.10832 14.9397 7.67499 14.413 8.95749 13.3213C9.28082 13.0463 9.63249 12.7472 10.0025 12.4047C10.3267 12.6988 10.6417 12.9655 10.9325 13.213C12.2208 14.3063 12.8933 14.9272 12.8933 15.9938C12.8919 16.7309 12.6088 17.4396 12.1019 17.9747C11.5949 18.5098 10.9026 18.8309 10.1667 18.8722ZM14.35 17.3963L14.3333 17.408C14.4829 16.9523 14.5594 16.4759 14.56 15.9963C14.56 14.1088 13.3217 13.0572 12.0117 11.9447C11.5475 11.5513 11.0683 11.1447 10.59 10.6663L9.99999 10.0772L9.41082 10.6663C8.87082 11.2055 8.34249 11.6555 7.87665 12.0522C6.56999 13.1638 5.44082 14.1247 5.44082 15.9963C5.4426 16.4965 5.52707 16.9929 5.69082 17.4655C4.82337 16.7994 4.12163 15.9418 3.6404 14.9597C3.15917 13.9776 2.91147 12.8975 2.91666 11.8038C2.90295 10.3415 3.46894 8.93326 4.49082 7.88716C4.66684 8.24426 4.87551 8.58432 5.11416 8.90299C5.28846 9.13819 5.52777 9.31725 5.8026 9.41809C6.07743 9.51893 6.37576 9.53714 6.66082 9.47049C6.95081 9.40593 7.21607 9.25921 7.42488 9.04789C7.6337 8.83656 7.77723 8.56956 7.83832 8.27882C8.18725 6.36353 8.94192 4.54505 10.0517 2.94549C10.9308 3.77882 11.8017 4.51632 12.5875 5.18382C15.1975 7.40049 17.0875 9.00216 17.0875 11.8088C17.0895 12.8877 16.8437 13.9526 16.3689 14.9214C15.8941 15.8902 15.2039 16.7369 14.35 17.3963Z" fill="#E50300"/>
</g>
</g>
<defs>
<clipPath id="clip0_1_1856">
<rect width="20" height="21" fill="white"/>
</clipPath>
</defs>
</svg>
