<svg width="23" height="22" viewBox="0 0 23 22" fill="none" xmlns="http://www.w3.org/2000/svg">
<g clip-path="url(#clip0_1_1831)">
<g clip-path="url(#clip1_1_1831)">
<g clip-path="url(#clip2_1_1831)">
<mask id="mask0_1_1831" style="mask-type:luminance" maskUnits="userSpaceOnUse" x="0" y="0" width="22" height="22">
<path d="M21.3072 0.318832H0.429932V21.1961H21.3072V0.318832Z" fill="white"/>
</mask>
<g mask="url(#mask0_1_1831)">
<path d="M21.3072 2.9285H4.11999L4.08346 2.62317C4.00869 1.98851 3.70366 1.40335 3.22618 0.97862C2.7487 0.553896 2.13198 0.31913 1.49293 0.318832H0.429932V2.05861H1.49293C1.706 2.05864 1.91165 2.13686 2.07086 2.27844C2.23009 2.42002 2.3318 2.61511 2.35673 2.82672L3.7355 14.5424C3.81027 15.177 4.11531 15.7622 4.59279 16.1869C5.07027 16.6116 5.68698 16.8464 6.32603 16.8467H17.8277V15.1069H6.32603C6.11283 15.1069 5.90707 15.0285 5.74784 14.8867C5.5886 14.745 5.48696 14.5497 5.46223 14.3379L5.34828 13.3671H19.4248L21.3072 2.9285ZM17.9703 11.6274H5.14385L4.32529 4.66828H19.2256L17.9703 11.6274Z" fill="black"/>
<path d="M6.51895 21.1961C7.4798 21.1961 8.25873 20.4172 8.25873 19.4564C8.25873 18.4955 7.4798 17.7166 6.51895 17.7166C5.5581 17.7166 4.77917 18.4955 4.77917 19.4564C4.77917 20.4172 5.5581 21.1961 6.51895 21.1961Z" fill="black"/>
<path d="M15.2178 21.1961C16.1787 21.1961 16.9576 20.4172 16.9576 19.4564C16.9576 18.4955 16.1787 17.7166 15.2178 17.7166C14.257 17.7166 13.478 18.4955 13.478 19.4564C13.478 20.4172 14.257 21.1961 15.2178 21.1961Z" fill="black"/>
</g>
</g>
</g>
</g>
<defs>
<clipPath id="clip0_1_1831">
<rect width="23" height="22" fill="white"/>
</clipPath>
<clipPath id="clip1_1_1831">
<rect width="21.7472" height="21.7472" fill="white"/>
</clipPath>
<clipPath id="clip2_1_1831">
<rect width="21.7472" height="21.7472" fill="white"/>
</clipPath>
</defs>
</svg>
