<svg width="23" height="22" viewBox="0 0 23 22" fill="none" xmlns="http://www.w3.org/2000/svg">
<g clip-path="url(#clip0_1_1820)">
<g clip-path="url(#clip1_1_1820)">
<g clip-path="url(#clip2_1_1820)">
<mask id="mask0_1_1820" style="mask-type:luminance" maskUnits="userSpaceOnUse" x="0" y="0" width="22" height="22">
<path d="M21.5516 0.318832H0.674316V21.1961H21.5516V0.318832Z" fill="white"/>
</mask>
<g mask="url(#mask0_1_1820)">
<path d="M15.8973 1.11652C14.9178 1.13175 13.9596 1.40519 13.1195 1.90922C12.2795 2.41325 11.5873 3.13002 11.1129 3.98715C10.6385 3.13002 9.94635 2.41325 9.1063 1.90922C8.26624 1.40519 7.30806 1.13175 6.32853 1.11652C4.76703 1.18436 3.29584 1.86745 2.23638 3.01655C1.17693 4.16566 0.615319 5.68736 0.674255 7.24923C0.674255 13.1427 10.2047 19.9496 10.6101 20.2384L11.1129 20.5942L11.6157 20.2384C12.021 19.9513 21.5515 13.1427 21.5515 7.24923C21.6105 5.68736 21.0489 4.16566 19.9895 3.01655C18.9299 1.86745 17.4588 1.18436 15.8973 1.11652ZM11.1129 18.4525C8.28317 16.3387 2.41403 11.1454 2.41403 7.24923C2.35457 6.14857 2.73273 5.06905 3.46604 4.24611C4.19935 3.42317 5.22832 2.92358 6.32853 2.85629C7.42874 2.92358 8.4577 3.42317 9.19102 4.24611C9.92434 5.06905 10.3025 6.14857 10.243 7.24923H11.9828C11.9233 6.14857 12.3015 5.06905 13.0348 4.24611C13.7681 3.42317 14.7971 2.92358 15.8973 2.85629C16.9975 2.92358 18.0265 3.42317 18.7598 4.24611C19.4931 5.06905 19.8712 6.14857 19.8117 7.24923C19.8117 11.1472 13.9426 16.3387 11.1129 18.4525Z" fill="black"/>
</g>
</g>
</g>
</g>
<defs>
<clipPath id="clip0_1_1820">
<rect width="23" height="22" fill="white"/>
</clipPath>
<clipPath id="clip1_1_1820">
<rect width="21.7472" height="21.7472" fill="white"/>
</clipPath>
<clipPath id="clip2_1_1820">
<rect width="21.7472" height="21.7472" fill="white"/>
</clipPath>
</defs>
</svg>
