<svg width="23" height="22" viewBox="0 0 23 22" fill="none" xmlns="http://www.w3.org/2000/svg">
<g clip-path="url(#clip0_1_1842)">
<g clip-path="url(#clip1_1_1842)">
<g clip-path="url(#clip2_1_1842)">
<mask id="mask0_1_1842" style="mask-type:luminance" maskUnits="userSpaceOnUse" x="0" y="0" width="22" height="22">
<path d="M21.2637 0.318832H0.386353V21.1961H21.2637V0.318832Z" fill="white"/>
</mask>
<g mask="url(#mask0_1_1842)">
<path d="M18.6539 21.1961H16.9141V16.8093C16.9134 16.1273 16.6422 15.4735 16.16 14.9912C15.6778 14.509 15.0239 14.2377 14.3419 14.237H7.30801C6.626 14.2377 5.97214 14.509 5.48991 14.9912C5.00767 15.4735 4.73643 16.1273 4.73575 16.8093V21.1961H2.99597V16.8093C2.99735 15.6661 3.4521 14.5701 4.26046 13.7617C5.06882 12.9534 6.1648 12.4986 7.30801 12.4973H14.3419C15.4851 12.4986 16.5811 12.9534 17.3894 13.7617C18.1978 14.5701 18.6525 15.6661 18.6539 16.8093V21.1961Z" fill="black"/>
<path d="M10.8249 10.7575C9.79267 10.7575 8.78352 10.4514 7.92522 9.87784C7.0669 9.30433 6.39793 8.48922 6.00289 7.53551C5.60785 6.5818 5.50449 5.53237 5.70588 4.51992C5.90727 3.50747 6.40436 2.57747 7.1343 1.84754C7.86423 1.1176 8.79422 0.620511 9.80668 0.419122C10.8191 0.217734 11.8686 0.321094 12.8222 0.716133C13.776 1.11117 14.5912 1.78014 15.1647 2.63846C15.7381 3.49677 16.0442 4.50588 16.0442 5.53816C16.0428 6.92199 15.4925 8.24874 14.514 9.22725C13.5355 10.2058 12.2088 10.7561 10.8249 10.7575ZM10.8249 2.05861C10.1367 2.05861 9.46403 2.26268 8.89182 2.64502C8.31957 3.02736 7.87359 3.57079 7.61023 4.2066C7.34687 4.8424 7.27797 5.54203 7.41223 6.21699C7.54649 6.89195 7.87788 7.51196 8.3645 7.99858C8.85111 8.4852 9.47116 8.81658 10.1461 8.95089C10.8211 9.08511 11.5207 9.01622 12.1565 8.75282C12.7923 8.48949 13.3357 8.04351 13.718 7.4713C14.1004 6.89909 14.3044 6.22635 14.3044 5.53816C14.3044 4.61532 13.9379 3.73029 13.2854 3.07775C12.6328 2.42521 11.7477 2.05861 10.8249 2.05861Z" fill="black"/>
</g>
</g>
</g>
</g>
<defs>
<clipPath id="clip0_1_1842">
<rect width="23" height="22" fill="white"/>
</clipPath>
<clipPath id="clip1_1_1842">
<rect width="21.7472" height="21.7472" fill="white"/>
</clipPath>
<clipPath id="clip2_1_1842">
<rect width="21.7472" height="21.7472" fill="white"/>
</clipPath>
</defs>
</svg>
