<svg width="16" height="11" viewBox="0 0 16 11" fill="none" xmlns="http://www.w3.org/2000/svg">
<path fill-rule="evenodd" clip-rule="evenodd" d="M9.8909 0.0776664H15.0686C15.1525 0.0780042 15.2329 0.111497 15.2922 0.170848C15.3516 0.230199 15.3851 0.3106 15.3854 0.394534V3.91472H15.4162C15.5085 3.91506 15.597 3.95197 15.6621 4.01737C15.7273 4.08278 15.7639 4.17134 15.7639 4.26366V4.64852C15.7635 4.74232 15.7261 4.83218 15.6598 4.89851C15.5935 4.96484 15.5036 5.00225 15.4098 5.00259H12.9634C14.7812 5.16423 15.8203 6.85505 15.7074 9.05388H14.0897C14.0614 9.5442 13.8466 10.0051 13.4895 10.3422C13.1323 10.6793 12.6598 10.8671 12.1686 10.8671C11.6775 10.8671 11.205 10.6793 10.8478 10.3422C10.4906 10.0051 10.2759 9.5442 10.2475 9.05388H5.37294C5.37317 9.01968 5.37308 8.98547 5.37264 8.95125V9.05388H5.37294C5.37144 9.26836 5.35678 9.48257 5.32903 9.69532L4.31428 9.21681C4.28563 9.53066 4.18177 9.83299 4.0115 10.0982C3.84124 10.3634 3.60957 10.5837 3.33612 10.7404C3.06267 10.8971 2.7555 10.9856 2.4406 10.9984C2.1257 11.0112 1.81235 10.9479 1.52708 10.8139C1.24181 10.68 0.993025 10.4792 0.801786 10.2287C0.610547 9.97821 0.482487 9.68531 0.428447 9.37482C0.374407 9.06433 0.39598 8.74538 0.491338 8.445C0.586696 8.14461 0.753032 7.87162 0.976261 7.64914L0 7.18346C0.811059 6.26111 1.79051 5.87199 2.9727 6.13442L2.9724 6.13665C3.23686 6.20144 3.37719 6.23594 3.43196 6.2494C3.45098 6.25408 3.45968 6.25622 3.45968 6.25621C3.45968 6.2562 3.45349 6.25467 3.44208 6.25183C3.38331 6.23724 3.18608 6.18827 2.98266 6.13665L2.9727 6.13442C3.17906 4.58479 3.63606 3.07904 4.32583 1.67612L3.72031 1.66714C3.68742 1.66714 3.65411 1.66925 3.62131 1.67132L3.62131 1.67132C3.52616 1.67734 3.43529 1.68309 3.37137 1.63635C3.29502 1.63081 3.22126 1.60632 3.15675 1.56511C3.09224 1.5239 3.03902 1.46725 3.00191 1.4003C2.9145 1.25343 2.87005 1.08497 2.87362 0.914095C2.87009 0.742815 2.91452 0.573959 3.00191 0.426606C3.0602 0.327479 3.15078 0.25139 3.25848 0.211084C3.25655 0.198329 3.25655 0.185354 3.25848 0.172599C3.37425 -0.016186 3.58161 -0.00569131 3.78955 0.00483261C3.83737 0.00725277 3.88521 0.00967447 3.93199 0.00967447L4.17573 0.0250689C4.35637 0.0498367 4.53058 0.109066 4.68888 0.199539L4.96726 0.356048H5.19304L5.9525 0.502295C5.97223 0.506179 5.99061 0.509623 6.00771 0.512827C6.20522 0.549834 6.23141 0.554741 6.17829 0.834558C6.17043 0.873645 6.16014 0.912206 6.1475 0.950016C6.08919 1.12392 6.04349 1.11115 5.91288 1.07463C5.8768 1.06455 5.83425 1.05265 5.78316 1.04238L5.07374 0.897418C5.10068 1.1835 5.00959 1.53885 4.88259 1.94295C5.28926 2.28805 5.47399 2.77938 5.19433 3.42851L4.51697 5.51574C5.65359 6.32138 6.33608 7.05518 6.37585 8.24696H7.81651C8.74273 7.54523 8.58623 6.29572 7.57276 5.49778V5.00259V4.2534C7.57276 4.01478 7.70105 3.90702 7.93838 3.91472H9.57403V0.394534C9.57437 0.3106 9.60786 0.230199 9.66722 0.170848C9.72657 0.111497 9.80697 0.0780042 9.8909 0.0776664ZM3.12506 8.66261L2.1565 8.20976C1.98221 8.25047 1.82492 8.34443 1.70645 8.47858C1.58797 8.61273 1.51419 8.78043 1.49533 8.95841C1.47647 9.13639 1.51348 9.31583 1.60121 9.47183C1.68895 9.62783 1.82306 9.75266 1.98495 9.82899C2.14683 9.90532 2.32846 9.92938 2.50463 9.89782C2.68081 9.86626 2.84279 9.78065 2.96811 9.65286C3.09343 9.52508 3.17587 9.36146 3.20399 9.18471C3.23212 9.00795 3.20453 8.82683 3.12506 8.66646V8.66261ZM3.26618 0.418909C3.27772 0.743474 3.29825 1.16041 3.31364 1.4452C3.28339 1.4182 3.25705 1.38711 3.23539 1.35284C3.15687 1.21834 3.11734 1.06465 3.12121 0.908964C3.11731 0.75368 3.15685 0.600391 3.23539 0.466375L3.23539 0.466368C3.24566 0.450976 3.25592 0.435584 3.26618 0.422757V0.418909ZM13.0147 9.05645C13.0062 9.27513 12.9133 9.48203 12.7556 9.63374C12.5978 9.78545 12.3875 9.87019 12.1686 9.87019C11.9498 9.87019 11.7394 9.78545 11.5817 9.63374C11.424 9.48203 11.3311 9.27513 11.3226 9.05645H13.0147ZM10.2978 2.42265V2.73818C10.2978 2.74668 10.3045 2.76085 10.3045 2.76085C10.3045 2.76085 10.3146 2.77024 10.3206 2.77024L14.8931 2.76672C14.8992 2.76672 14.905 2.76334 14.9093 2.75733C14.9136 2.75131 14.916 2.74316 14.916 2.73466V2.41912C14.9162 2.41477 14.9157 2.41042 14.9146 2.40634C14.9136 2.40225 14.9119 2.39851 14.9097 2.39536C14.9076 2.3922 14.905 2.38968 14.9022 2.38797C14.8993 2.38625 14.8962 2.38537 14.8931 2.38538L10.3206 2.3889C10.3175 2.38889 10.3145 2.38977 10.3116 2.39149C10.3087 2.39321 10.3062 2.39572 10.304 2.39888C10.3019 2.40204 10.3002 2.40577 10.2991 2.40986C10.2981 2.41394 10.2976 2.4183 10.2978 2.42265ZM11.5811 1.58353V1.268C11.581 1.26365 11.5814 1.25929 11.5821 1.25521C11.5829 1.25112 11.5841 1.24739 11.5857 1.24423C11.5872 1.24107 11.5891 1.23856 11.5911 1.23684C11.5932 1.23512 11.5954 1.23424 11.5977 1.23425L14.9 1.23073C14.9023 1.23072 14.9045 1.2316 14.9065 1.23332C14.9086 1.23503 14.9105 1.23755 14.912 1.24071C14.9136 1.24386 14.9148 1.2476 14.9155 1.25169C14.9163 1.25577 14.9167 1.26012 14.9165 1.26447V1.58001C14.9165 1.58851 14.9148 1.59666 14.9117 1.60267C14.9086 1.60869 14.9044 1.61206 14.9 1.61206L11.5977 1.61559C11.5933 1.61559 11.586 1.6062 11.586 1.6062C11.586 1.6062 11.5811 1.59203 11.5811 1.58353Z" fill="#BF7300"/>
</svg>
