<svg width="20" height="22" viewBox="0 0 20 22" fill="none" xmlns="http://www.w3.org/2000/svg">
<path d="M18.1988 18.0682C18.2067 17.181 18.0039 16.3006 17.6019 15.4773C17.1999 14.654 16.6066 13.9039 15.8559 13.2698C15.1052 12.6357 14.2118 12.1301 13.2267 11.7818C12.2416 11.4334 11.1841 11.2492 10.1146 11.2397C9.04501 11.2302 7.98438 11.3955 6.99322 11.7262C6.00206 12.0569 5.09979 12.5465 4.33791 13.1671C3.57604 13.7877 2.96948 14.5271 2.55288 15.3432C2.13627 16.1592 1.91778 17.0358 1.90987 17.923L10.0543 17.9956L18.1988 18.0682Z" fill="#E50300"/>
<path d="M13.9255 6.58291C13.2217 5.88367 13.6771 5.16588 13.9928 4.8944C14.0462 4.76494 13.0527 4.92932 12.9901 6.09815C12.9274 7.26698 13.7596 7.62089 14.071 7.84022C14.3823 8.05955 14.6395 8.49495 14.5292 9.14362C14.419 9.7923 13.8432 9.96041 13.9465 10.0913C14.0497 10.2221 14.8889 9.79649 15.2103 8.88983C15.5316 7.98317 14.8053 7.45697 13.9255 6.58291Z" fill="#FFAD31"/>
<path d="M11.7715 2.2326C11.9497 0.986844 11.0235 0.233639 10.486 0.0122932C10.1213 -0.0775794 10.7965 0.318241 11.0479 1.40325C11.2993 2.48826 10.6674 3.08897 10.1415 3.51739C9.61554 3.94581 9.08574 4.8073 9.23502 5.63153C9.38431 6.45576 10.3163 7.33028 10.5754 7.54914C10.8345 7.768 11.1486 7.68418 10.9931 7.55287C10.215 6.98289 9.91411 5.59427 10.2351 4.73092C10.5561 3.86757 11.5488 3.7898 11.7715 2.2326Z" fill="#FFAD31"/>
<path d="M5.16191 5.7253C4.50662 4.26422 5.52927 3.56304 6.12251 3.39509C6.31074 3.32869 5.80463 3.91198 5.69867 4.08428C5.59271 4.25658 5.42952 4.9914 6.20607 5.73461C6.98263 6.47781 7.65593 7.09016 7.64898 7.86969C7.64203 8.64922 6.95599 9.46601 6.06729 9.58802C7.81139 7.22148 5.98102 7.55165 5.16191 5.7253Z" fill="#FFAD31"/>
<ellipse cx="10.0304" cy="10.1429" rx="1.25304" ry="1.03941" transform="rotate(0.510807 10.0304 10.1429)" fill="#E50300"/>
<rect x="0.0127708" y="18.9765" width="19.9443" height="2.85839" rx="1.38659" transform="rotate(0.510807 0.0127708 18.9765)" fill="#E50300"/>
</svg>
