<svg width="25" height="25" viewBox="0 0 25 25" fill="none" xmlns="http://www.w3.org/2000/svg">
<path fill-rule="evenodd" clip-rule="evenodd" d="M7.90907 7.10133L4.81329 7.10133C4.45551 7.10133 4.16548 7.39136 4.16548 7.74913C4.16548 8.1069 4.45551 8.39693 4.81329 8.39693L7.96753 8.39693M12.3701 8.39693L20.8788 8.39693C21.2366 8.39693 21.5266 8.1069 21.5266 7.74913C21.5266 7.39136 21.2366 7.10133 20.8788 7.10133L12.3523 7.10133" fill="black"/>
<path fill-rule="evenodd" clip-rule="evenodd" d="M9.79483 4.63933C8.18919 4.63933 6.88781 5.94198 6.88781 7.54855C6.88781 9.15513 8.18919 10.4578 9.79483 10.4578C11.4005 10.4578 12.7018 9.15513 12.7018 7.54855C12.7018 5.94197 11.4005 4.63933 9.79483 4.63933ZM9.79483 9.16217C8.90501 9.16217 8.18342 8.43987 8.18342 7.54855C8.18342 6.65723 8.90501 5.93494 9.79483 5.93494C10.6846 5.93494 11.4062 6.65723 11.4062 7.54855C11.4062 8.43987 10.6846 9.16217 9.79483 9.16217Z" fill="black"/>
<path fill-rule="evenodd" clip-rule="evenodd" d="M18.8211 16.4296L20.8805 16.4296C21.2382 16.4296 21.5283 16.1395 21.5283 15.7817C21.5283 15.424 21.2382 15.1339 20.8805 15.1339L18.7627 15.1339M14.3602 15.1339L4.81495 15.1339C4.45718 15.1339 4.16715 15.424 4.16715 15.7817C4.16715 16.1395 4.45718 16.4296 4.81495 16.4296L14.3779 16.4296" fill="black"/>
<path fill-rule="evenodd" clip-rule="evenodd" d="M16.0135 18.7499C17.6191 18.7499 18.9205 17.4472 18.9205 15.8407C18.9205 14.2341 17.6191 12.9314 16.0135 12.9314C14.4078 12.9314 13.1064 14.2341 13.1064 15.8407C13.1064 17.4472 14.4078 18.7499 16.0135 18.7499ZM16.0135 14.227C16.9033 14.227 17.6249 14.9493 17.6249 15.8407C17.6249 16.732 16.9033 17.4543 16.0135 17.4543C15.1236 17.4543 14.402 16.732 14.402 15.8407C14.402 14.9493 15.1236 14.227 16.0135 14.227Z" fill="black"/>
</svg>
