<svg width="26" height="26" viewBox="0 0 26 26" fill="none" xmlns="http://www.w3.org/2000/svg">
<path d="M16.25 1.08343H9.75V3.25009H16.25V1.08343ZM20.6158 8.00593L22.1542 6.4676C21.6883 5.9151 21.1792 5.3951 20.6267 4.9401L19.0883 6.47843C17.3629 5.08995 15.2147 4.33309 13 4.33343C7.61583 4.33343 3.25 8.69926 3.25 14.0834C3.25 19.4676 7.605 23.8334 13 23.8334C14.8355 23.8344 16.634 23.3169 18.1882 22.3406C19.7425 21.3642 20.9894 19.9686 21.7852 18.3146C22.5811 16.6607 22.8936 14.8155 22.6867 12.9917C22.4798 11.1679 21.762 9.43963 20.6158 8.00593ZM13 21.6668C8.8075 21.6668 5.41666 18.2759 5.41666 14.0834C5.41666 9.89093 8.8075 6.5001 13 6.5001C17.1925 6.5001 20.5833 9.89093 20.5833 14.0834C20.5833 18.2759 17.1925 21.6668 13 21.6668Z" fill="black"/>
<path d="M12.9445 20.3411C14.6538 20.3602 16.2998 19.7665 17.5205 18.6909C18.7413 17.6153 19.4367 16.1457 19.4538 14.6054C19.471 13.0652 18.8084 11.5805 17.612 10.478C16.4155 9.37542 14.783 8.74532 13.0738 8.7263L13.0092 14.5337L12.9445 20.3411Z" fill="#00A912"/>
</svg>
