<svg width="16" height="11" viewBox="0 0 16 11" fill="none" xmlns="http://www.w3.org/2000/svg">
<path fill-rule="evenodd" clip-rule="evenodd" d="M9.89085 0.0776662H15.0685C15.1524 0.078004 15.2328 0.111497 15.2922 0.170848C15.3515 0.230199 15.385 0.310599 15.3853 0.394533V3.91471H15.4161C15.5084 3.91505 15.5969 3.95196 15.662 4.01736C15.7272 4.08277 15.7638 4.17133 15.7638 4.26365V4.64851C15.7634 4.74231 15.726 4.83217 15.6597 4.8985C15.5934 4.96483 15.5035 5.00224 15.4097 5.00258H12.9633C14.7811 5.16422 15.8202 6.85503 15.7073 9.05386H14.0897C14.0613 9.54417 13.8466 10.0051 13.4894 10.3422C13.1322 10.6793 12.6597 10.8671 12.1686 10.8671C11.6774 10.8671 11.2049 10.6793 10.8477 10.3422C10.4906 10.0051 10.2758 9.54417 10.2475 9.05386H5.37291C5.37315 9.01966 5.37305 8.98545 5.37262 8.95123V9.05386H5.37291C5.37141 9.26834 5.35675 9.48255 5.329 9.69529L4.31426 9.21679C4.28561 9.53064 4.18175 9.83297 4.01148 10.0982C3.84122 10.3634 3.60955 10.5837 3.33611 10.7404C3.06266 10.897 2.75548 10.9855 2.44058 10.9983C2.12568 11.0111 1.81234 10.9479 1.52707 10.8139C1.2418 10.6799 0.99302 10.4792 0.801782 10.2287C0.610544 9.97819 0.482485 9.68529 0.428445 9.3748C0.374406 9.06431 0.395978 8.74536 0.491335 8.44497C0.586693 8.14459 0.753028 7.8716 0.976257 7.64913L0 7.18345C0.811055 6.26109 1.7905 5.87198 2.97268 6.1344L2.97239 6.13663C3.23709 6.20148 3.37743 6.23599 3.4321 6.24943C3.45101 6.25408 3.45966 6.2562 3.45966 6.2562C3.45967 6.25619 3.45348 6.25465 3.44208 6.25182C3.38334 6.23724 3.18609 6.18826 2.98265 6.13663L2.97268 6.1344C3.17904 4.58478 3.63605 3.07903 4.3258 1.67611L3.72029 1.66713C3.6874 1.66713 3.65409 1.66924 3.62129 1.67132C3.52614 1.67734 3.43527 1.68309 3.37136 1.63635C3.29501 1.63081 3.22124 1.60632 3.15673 1.56511C3.09222 1.52389 3.03901 1.46725 3.00189 1.4003C2.91448 1.25342 2.87004 1.08497 2.87361 0.914093C2.87007 0.742813 2.91451 0.573958 3.00189 0.426605C3.06018 0.327478 3.15076 0.25139 3.25846 0.211084C3.25653 0.198328 3.25653 0.185354 3.25846 0.172598C3.37424 -0.016186 3.58159 -0.00569129 3.78953 0.0048326C3.83735 0.00725275 3.88519 0.00967445 3.93197 0.00967445L4.17571 0.0250688C4.35635 0.0498365 4.53055 0.109066 4.68885 0.199538L4.96723 0.356048H5.19302L5.95247 0.502294C5.97219 0.506177 5.99057 0.509621 6.00767 0.512824L6.00768 0.512825C6.20519 0.549832 6.23138 0.55474 6.17825 0.834556C6.1704 0.873643 6.16011 0.912203 6.14746 0.950013C6.08916 1.12392 6.04346 1.11114 5.91285 1.07463C5.87677 1.06455 5.83422 1.05265 5.78313 1.04238L5.07371 0.897416C5.10065 1.18349 5.00957 1.53885 4.88257 1.94295C5.28923 2.28804 5.47396 2.77938 5.1943 3.42851L4.51695 5.51572C5.65356 6.32136 6.33605 7.05516 6.37581 8.24694H7.81647C8.74269 7.54521 8.58618 6.29571 7.57272 5.49776V5.00258V4.25339C7.57272 4.01477 7.70101 3.90701 7.93834 3.91471H9.57398V0.394533C9.57432 0.310599 9.60781 0.230199 9.66717 0.170848C9.72652 0.111497 9.80692 0.078004 9.89085 0.0776662ZM3.12505 8.66259L2.15649 8.20974C1.9822 8.25045 1.82491 8.34441 1.70644 8.47856C1.58796 8.61271 1.51418 8.78041 1.49532 8.95839C1.47647 9.13637 1.51347 9.31581 1.60121 9.47181C1.68894 9.62781 1.82305 9.75263 1.98494 9.82897C2.14682 9.9053 2.32845 9.92935 2.50462 9.89779C2.68079 9.86623 2.84278 9.78062 2.9681 9.65284C3.09341 9.52506 3.17585 9.36144 3.20398 9.18468C3.2321 9.00793 3.20452 8.8268 3.12505 8.66644V8.66259ZM3.26616 0.418908C3.27771 0.743472 3.29823 1.1604 3.31363 1.4452C3.28338 1.4182 3.25704 1.38711 3.23537 1.35283C3.15686 1.21834 3.11732 1.06465 3.1212 0.908962C3.11729 0.753678 3.15683 0.600389 3.23537 0.466374C3.24564 0.450979 3.2559 0.435585 3.26616 0.422756V0.418908ZM13.0146 9.05643C13.0061 9.27511 12.9132 9.48201 12.7555 9.63372C12.5978 9.78543 12.3874 9.87017 12.1686 9.87017C11.9497 9.87017 11.7394 9.78543 11.5816 9.63372C11.4239 9.48201 11.331 9.27511 11.3225 9.05643H13.0146ZM10.2969 2.42259V2.73812C10.2969 2.74663 10.3036 2.76079 10.3036 2.76079C10.3036 2.76079 10.3137 2.77018 10.3198 2.77018L14.8922 2.76666C14.8983 2.76666 14.9041 2.76328 14.9084 2.75727C14.9127 2.75126 14.9151 2.7431 14.9151 2.7346V2.41907C14.9153 2.41472 14.9148 2.41037 14.9137 2.40628C14.9127 2.4022 14.911 2.39846 14.9089 2.3953C14.9067 2.39214 14.9041 2.38963 14.9013 2.38792C14.8984 2.3862 14.8953 2.38532 14.8922 2.38532L10.3198 2.38885C10.3167 2.38884 10.3136 2.38972 10.3107 2.39144C10.3079 2.39315 10.3053 2.39567 10.3031 2.39882C10.301 2.40198 10.2993 2.40572 10.2983 2.40981C10.2972 2.41389 10.2967 2.41824 10.2969 2.42259ZM11.5814 1.58379V1.26826C11.5813 1.26391 11.5816 1.25956 11.5824 1.25547C11.5831 1.25138 11.5843 1.24765 11.5859 1.24449C11.5874 1.24133 11.5893 1.23882 11.5914 1.2371C11.5934 1.23539 11.5957 1.23451 11.5979 1.23451L14.9002 1.23099C14.9025 1.23098 14.9047 1.23187 14.9068 1.23358C14.9088 1.2353 14.9107 1.23781 14.9122 1.24097C14.9138 1.24413 14.915 1.24786 14.9158 1.25195C14.9165 1.25604 14.9169 1.26039 14.9168 1.26474V1.58027C14.9168 1.58877 14.915 1.59692 14.9119 1.60294C14.9088 1.60895 14.9046 1.61233 14.9002 1.61233L11.5979 1.61585C11.5935 1.61585 11.5862 1.60646 11.5862 1.60646C11.5862 1.60646 11.5814 1.59229 11.5814 1.58379Z" fill="#BF7300"/>
</svg>
