<svg width="26" height="26" viewBox="0 0 26 26" fill="none" xmlns="http://www.w3.org/2000/svg">
<path d="M16.4935 1.08343H9.99347V3.25009H16.4935V1.08343ZM20.8593 8.00592L22.3976 6.46759C21.9318 5.91509 21.4226 5.39509 20.8701 4.94009L19.3318 6.47842C17.6064 5.08994 15.4582 4.33309 13.2435 4.33342C7.85931 4.33342 3.49348 8.69925 3.49348 14.0834C3.49348 19.4676 7.84847 23.8334 13.2435 23.8334C15.079 23.8344 16.8774 23.3169 18.4317 22.3405C19.986 21.3642 21.2328 19.9686 22.0287 18.3146C22.8245 16.6606 23.137 14.8155 22.9301 12.9917C22.7233 11.1679 22.0054 9.43961 20.8593 8.00592ZM13.2435 21.6667C9.05097 21.6667 5.66014 18.2759 5.66014 14.0834C5.66014 9.89092 9.05097 6.50009 13.2435 6.50009C17.436 6.50009 20.8268 9.89092 20.8268 14.0834C20.8268 18.2759 17.436 21.6667 13.2435 21.6667Z" fill="black"/>
<path d="M12.9338 8.70563C14.6427 8.73079 16.2725 9.36702 17.4649 10.4735C18.6575 11.5803 19.3152 13.0676 19.2926 14.6078C19.27 16.1479 18.569 17.615 17.3444 18.6863C16.3335 19.5707 15.034 20.1245 13.6497 20.277C13.4317 20.3157 13.2069 20.3434 12.9743 20.355C11.3346 20.4366 9.44137 19.8211 8.32164 18.7187C7.20184 17.6162 6.60389 16.0755 6.66005 14.4346C6.71621 12.7938 7.42114 11.1873 8.62034 9.96929L12.8427 14.1268L12.8538 14.1379L12.9338 8.70563Z" fill="#E50300"/>
</svg>
