<svg width="26" height="26" viewBox="0 0 26 26" fill="none" xmlns="http://www.w3.org/2000/svg">
<path d="M16.25 1.08343H9.75V3.25009H16.25V1.08343ZM20.6158 8.00593L22.1542 6.46759C21.6883 5.91509 21.1792 5.39509 20.6267 4.94009L19.0883 6.47843C17.3629 5.08995 15.2147 4.33309 13 4.33343C7.61583 4.33343 3.25 8.69926 3.25 14.0834C3.25 19.4676 7.605 23.8334 13 23.8334C14.8355 23.8344 16.634 23.3169 18.1882 22.3405C19.7425 21.3642 20.9894 19.9686 21.7852 18.3146C22.5811 16.6607 22.8936 14.8155 22.6867 12.9917C22.4798 11.1679 21.762 9.43962 20.6158 8.00593ZM13 21.6668C8.8075 21.6668 5.41667 18.2759 5.41667 14.0834C5.41667 9.89093 8.8075 6.50009 13 6.50009C17.1925 6.50009 20.5833 9.89093 20.5833 14.0834C20.5833 18.2759 17.1925 21.6668 13 21.6668Z" fill="black"/>
<path d="M12.5822 8.6907C14.2913 8.71582 15.9218 9.35184 17.1144 10.4586C18.3069 11.5654 18.9636 13.0527 18.941 14.5928C18.9184 16.1329 18.2182 17.6001 16.9939 18.6714C16.6623 18.9615 16.298 19.2142 15.9115 19.4308C15.0072 20.0437 13.962 20.3775 12.885 20.3775C11.3446 20.3775 9.86722 19.6978 8.77806 18.4891C7.68904 17.2805 7.07698 15.6409 7.07698 13.9316H12.5052L12.5822 8.6907Z" fill="#00A912"/>
</svg>
