<svg width="13" height="12" viewBox="0 0 13 12" fill="none" xmlns="http://www.w3.org/2000/svg">
<path d="M6.79347 8.62917L11.1079 4.1011C11.1799 4.02555 11.2201 3.92517 11.2201 3.82079C11.2201 3.7164 11.1799 3.61603 11.1078 3.54047L11.103 3.5356C11.0681 3.49885 11.026 3.46958 10.9794 3.44958C10.9329 3.42958 10.8827 3.41927 10.832 3.41927C10.7813 3.41927 10.7311 3.42958 10.6846 3.44958C10.638 3.46958 10.596 3.49885 10.561 3.5356L6.49853 7.7996L2.43766 3.5356C2.40274 3.49885 2.36071 3.46958 2.31413 3.44958C2.26755 3.42958 2.21738 3.41927 2.16669 3.41927C2.11599 3.41927 2.06583 3.42958 2.01925 3.44958C1.97266 3.46958 1.93064 3.49885 1.89572 3.5356L1.89084 3.54048C1.81882 3.61603 1.77864 3.71641 1.77864 3.82079C1.77864 3.92517 1.81882 4.02555 1.89084 4.1011L6.20522 8.62917C6.24316 8.66899 6.2888 8.70069 6.33936 8.72235C6.38991 8.74402 6.44434 8.75519 6.49935 8.75519C6.55435 8.75519 6.60878 8.74402 6.65934 8.72235C6.7099 8.70069 6.75553 8.66899 6.79347 8.62917Z" fill="white"/>
</svg>
