<svg width="26" height="26" viewBox="0 0 26 26" fill="none" xmlns="http://www.w3.org/2000/svg">
<path d="M16.4934 1.1095H9.99343V3.27617H16.4934V1.1095ZM20.8593 8.03201L22.3976 6.49368C21.9318 5.94118 21.4226 5.42117 20.8701 4.96617L19.3318 6.50451C17.6064 5.11603 15.4581 4.35917 13.2434 4.35951C7.85926 4.35951 3.49342 8.72535 3.49342 14.1095C3.49342 19.4937 7.84843 23.8595 13.2434 23.8595C15.0789 23.8605 16.8774 23.343 18.4317 22.3667C19.9859 21.3903 21.2328 19.9947 22.0287 18.3407C22.8245 16.6868 23.137 14.8416 22.9301 13.0178C22.7232 11.194 22.0054 9.46571 20.8593 8.03201ZM13.2434 21.6929C9.05093 21.6929 5.66009 18.302 5.66009 14.1095C5.66009 9.91702 9.05093 6.52618 13.2434 6.52618C17.4359 6.52618 20.8268 9.91702 20.8268 14.1095C20.8268 18.302 17.4359 21.6929 13.2434 21.6929Z" fill="black"/>
<ellipse cx="13.174" cy="14.1956" rx="6.35168" ry="6.42934" fill="#E50300"/>
</svg>
