<svg width="13" height="31" viewBox="0 0 13 31" fill="none" xmlns="http://www.w3.org/2000/svg">
<g clip-path="url(#clip0_1_1815)">
<path d="M5.20819 21.7L4.83619 21.4107C3.92685 20.6391 3.05885 19.7711 2.23219 18.8067C0.744186 17.0707 0.000186437 15.624 0.000186437 14.4667C0.000186437 13.5298 0.234409 12.6618 0.702853 11.8627C1.1713 11.0636 1.80508 10.4298 2.60419 9.96134C3.4033 9.49289 4.2713 9.25867 5.20819 9.25867C6.14508 9.25867 7.01308 9.49289 7.81219 9.96134C8.6113 10.4298 9.24508 11.0636 9.71352 11.8627C10.182 12.6618 10.4162 13.5298 10.4162 14.4667C10.4162 15.624 9.67219 17.0707 8.18419 18.8067C7.38508 19.7436 6.51708 20.6116 5.58019 21.4107L5.20819 21.7ZM5.20819 10.3747C4.46419 10.3747 3.78219 10.5607 3.16219 10.9327C2.54219 11.3047 2.04619 11.8007 1.67419 12.4207C1.30219 13.0407 1.11619 13.7296 1.11619 14.4873C1.11619 15.2451 1.62596 16.2578 2.64552 17.5253C3.36196 18.4347 4.21619 19.3302 5.20819 20.212C6.20019 19.3302 7.05441 18.4347 7.77085 17.5253C8.79041 16.2578 9.30019 15.2451 9.30019 14.4873C9.30019 13.7296 9.11419 13.0407 8.74219 12.4207C8.37019 11.8007 7.87419 11.3047 7.25419 10.9327C6.63419 10.5607 5.95219 10.3747 5.20819 10.3747ZM5.20819 16.5333C4.62952 16.5333 4.14041 16.3336 3.74085 15.934C3.3413 15.5344 3.14152 15.0453 3.14152 14.4667C3.14152 13.888 3.3413 13.3989 3.74085 12.9993C4.14041 12.5998 4.62952 12.4 5.20819 12.4C5.78685 12.4 6.27596 12.5998 6.67552 12.9993C7.07508 13.3989 7.27485 13.888 7.27485 14.4667C7.27485 15.0453 7.07508 15.5344 6.67552 15.934C6.27596 16.3336 5.78685 16.5333 5.20819 16.5333ZM5.20819 13.4333C4.93263 13.4333 4.69152 13.5367 4.48485 13.7433C4.27819 13.95 4.17485 14.1911 4.17485 14.4667C4.17485 14.7422 4.27819 14.9833 4.48485 15.19C4.69152 15.3967 4.93263 15.5 5.20819 15.5C5.48374 15.5 5.72485 15.3967 5.93152 15.19C6.13819 14.9833 6.24152 14.7422 6.24152 14.4667C6.24152 14.1911 6.13819 13.95 5.93152 13.7433C5.72485 13.5367 5.48374 13.4333 5.20819 13.4333Z" fill="#B6B6B6"/>
</g>
<defs>
<clipPath id="clip0_1_1815">
<rect width="12.1784" height="30.4461" fill="white" transform="matrix(1.01819 0 0 -1.01819 0 31)"/>
</clipPath>
</defs>
</svg>
