<svg width="22" height="20" viewBox="0 0 22 20" fill="none" xmlns="http://www.w3.org/2000/svg">
<path d="M20.0854 10.9999H0.956448C0.702782 10.9999 0.459505 10.8945 0.280136 10.707C0.100767 10.5195 0 10.2652 0 10C0 9.73482 0.100767 9.48049 0.280136 9.29298C0.459505 9.10547 0.702782 9.00013 0.956448 9.00013H20.0854C20.3391 9.00013 20.5823 9.10547 20.7617 9.29298C20.9411 9.48049 21.0418 9.73482 21.0418 10C21.0418 10.2652 20.9411 10.5195 20.7617 10.707C20.5823 10.8945 20.3391 10.9999 20.0854 10.9999Z" fill="black"/>
<path d="M19.6894 10L11.7567 1.70905C11.5771 1.5213 11.4762 1.26665 11.4762 1.00113C11.4762 0.735617 11.5771 0.480974 11.7567 0.293224C11.9362 0.105474 12.1798 0 12.4338 0C12.6878 0 12.9314 0.105474 13.111 0.293224L21.719 9.29209C21.8081 9.38497 21.8787 9.49531 21.927 9.61678C21.9752 9.73826 22 9.86848 22 10C22 10.1315 21.9752 10.2617 21.927 10.3832C21.8787 10.5047 21.8081 10.615 21.719 10.7079L13.111 19.7068C12.9314 19.8945 12.6878 20 12.4338 20C12.1798 20 11.9362 19.8945 11.7567 19.7068C11.5771 19.519 11.4762 19.2644 11.4762 18.9989C11.4762 18.7333 11.5771 18.4787 11.7567 18.291L19.6894 10Z" fill="black"/>
</svg>
