<svg width="16" height="11" viewBox="0 0 16 11" fill="none" xmlns="http://www.w3.org/2000/svg">
<path fill-rule="evenodd" clip-rule="evenodd" d="M9.89082 0.0776657H15.0684C15.1524 0.0780035 15.2328 0.111496 15.2921 0.170847C15.3515 0.230197 15.385 0.310597 15.3853 0.394531V3.91469H15.4161C15.5084 3.91503 15.5968 3.95194 15.662 4.01734C15.7271 4.08274 15.7637 4.1713 15.7637 4.26362V4.64848C15.7634 4.74228 15.726 4.83214 15.6597 4.89847C15.5933 4.9648 15.5035 5.00221 15.4097 5.00255H12.9633C14.7811 5.16419 15.8202 6.85499 15.7073 9.05381H14.0896C14.0613 9.54412 13.8465 10.005 13.4894 10.3421C13.1322 10.6793 12.6597 10.867 12.1685 10.867C11.6774 10.867 11.2049 10.6793 10.8477 10.3421C10.4905 10.005 10.2758 9.54412 10.2475 9.05381H5.37289C5.37313 9.0196 5.37303 8.98539 5.3726 8.95118V9.05381H5.37289C5.3714 9.26828 5.35674 9.48249 5.32898 9.69524L4.31424 9.21673C4.28559 9.53058 4.18174 9.83291 4.01147 10.0981C3.8412 10.3633 3.60954 10.5836 3.3361 10.7403C3.06265 10.897 2.75547 10.9855 2.44058 10.9983C2.12568 11.0111 1.81233 10.9478 1.52707 10.8138C1.2418 10.6799 0.993016 10.4791 0.801779 10.2286C0.610542 9.97813 0.482483 9.68523 0.428443 9.37474C0.374404 9.06425 0.395976 8.74531 0.491334 8.44492C0.586691 8.14454 0.753025 7.87155 0.976253 7.64908L0 7.1834C0.811053 6.26105 1.79049 5.87194 2.97267 6.13437L2.97238 6.13659C3.23692 6.2014 3.37726 6.23591 3.43199 6.24937C3.45097 6.25403 3.45965 6.25617 3.45965 6.25616C3.45966 6.25615 3.45345 6.25461 3.44202 6.25177C3.3832 6.23717 3.18601 6.1882 2.98264 6.13659L2.97267 6.13437C3.17903 4.58475 3.63603 3.07901 4.32579 1.6761L3.72028 1.66712C3.68739 1.66712 3.65409 1.66923 3.62128 1.67131L3.62128 1.67131C3.52613 1.67733 3.43526 1.68308 3.37135 1.63634C3.295 1.6308 3.22123 1.60631 3.15672 1.5651C3.09222 1.52388 3.039 1.46724 3.00188 1.40029C2.91447 1.25342 2.87003 1.08497 2.8736 0.914088C2.87006 0.742809 2.9145 0.573955 3.00188 0.426602C3.06017 0.327476 3.15075 0.251388 3.25845 0.211083C3.25652 0.198327 3.25652 0.185353 3.25845 0.172597C3.37423 -0.0161859 3.58158 -0.00569126 3.78952 0.00483257C3.83733 0.0072527 3.88518 0.00967438 3.93195 0.00967438L4.1757 0.0250687C4.35634 0.0498362 4.53054 0.109065 4.68884 0.199537L4.96722 0.356045H5.193L5.95245 0.502291C5.97217 0.506173 5.99055 0.509616 6.00764 0.512819L6.00766 0.512822C6.20517 0.549829 6.23136 0.554736 6.17823 0.834551C6.17038 0.873638 6.16009 0.912198 6.14744 0.950007C6.08914 1.12391 6.04344 1.11114 5.91283 1.07462C5.87675 1.06454 5.8342 1.05265 5.78311 1.04237L5.07369 0.89741C5.10063 1.18349 5.00955 1.53884 4.88255 1.94294C5.28921 2.28803 5.47395 2.77936 5.19428 3.42848L4.51694 5.51569C5.65355 6.32132 6.33602 7.05512 6.37579 8.24689H7.81644C8.74266 7.54517 8.58615 6.29567 7.5727 5.49773V5.00255V4.25336C7.5727 4.01475 7.70098 3.90699 7.93831 3.91469H9.57395V0.394531C9.57429 0.310597 9.60778 0.230197 9.66713 0.170847C9.72649 0.111496 9.80689 0.0780035 9.89082 0.0776657ZM3.12504 8.66254L2.15648 8.20969C1.9822 8.2504 1.82491 8.34436 1.70643 8.47851C1.58796 8.61266 1.51417 8.78036 1.49532 8.95834C1.47646 9.13632 1.51347 9.31576 1.6012 9.47175C1.68894 9.62775 1.82305 9.75257 1.98493 9.82891C2.14681 9.90524 2.32844 9.92929 2.50461 9.89773C2.68079 9.86617 2.84277 9.78056 2.96809 9.65278C3.0934 9.525 3.17584 9.36138 3.20397 9.18463C3.23209 9.00788 3.20451 8.82675 3.12504 8.66638V8.66254ZM3.26615 0.418905C3.2777 0.743468 3.29822 1.1604 3.31362 1.44519C3.28337 1.41819 3.25703 1.3871 3.23536 1.35282C3.15685 1.21833 3.11731 1.06464 3.12119 0.908956C3.11728 0.753673 3.15682 0.600385 3.23536 0.466371C3.24563 0.450977 3.25589 0.435582 3.26615 0.422754V0.418905ZM13.0146 9.05637C13.0061 9.27506 12.9132 9.48195 12.7555 9.63366C12.5977 9.78537 12.3874 9.87011 12.1685 9.87011C11.9497 9.87011 11.7393 9.78537 11.5816 9.63366C11.4239 9.48195 11.331 9.27506 11.3225 9.05637H13.0146ZM10.2974 2.42242V2.73795C10.2974 2.74645 10.3042 2.76062 10.3042 2.76062C10.3042 2.76062 10.3143 2.77001 10.3203 2.77001L14.8928 2.76649C14.8988 2.76649 14.9047 2.76311 14.909 2.7571C14.9133 2.75108 14.9157 2.74293 14.9157 2.73443V2.4189C14.9158 2.41455 14.9154 2.4102 14.9143 2.40611C14.9132 2.40202 14.9115 2.39829 14.9094 2.39513C14.9073 2.39197 14.9047 2.38946 14.9018 2.38774C14.899 2.38603 14.8959 2.38514 14.8928 2.38515L10.3203 2.38867C10.3172 2.38867 10.3141 2.38955 10.3113 2.39126C10.3084 2.39298 10.3059 2.39549 10.3037 2.39865C10.3016 2.40181 10.2999 2.40554 10.2988 2.40963C10.2978 2.41372 10.2973 2.41807 10.2974 2.42242ZM11.5808 1.58346V1.26793C11.5807 1.26358 11.581 1.25923 11.5818 1.25514C11.5826 1.25106 11.5838 1.24732 11.5853 1.24416C11.5869 1.241 11.5887 1.23849 11.5908 1.23678C11.5929 1.23506 11.5951 1.23418 11.5973 1.23418L14.8997 1.23066C14.9019 1.23066 14.9041 1.23154 14.9062 1.23325C14.9083 1.23497 14.9101 1.23748 14.9117 1.24064C14.9132 1.2438 14.9144 1.24753 14.9152 1.25162C14.916 1.25571 14.9163 1.26006 14.9162 1.26441V1.57994C14.9162 1.58844 14.9145 1.59659 14.9114 1.60261C14.9083 1.60862 14.904 1.612 14.8997 1.612L11.5973 1.61552C11.593 1.61552 11.5857 1.60613 11.5857 1.60613C11.5857 1.60613 11.5808 1.59196 11.5808 1.58346Z" fill="#BF7300"/>
</svg>
