<svg width="16" height="11" viewBox="0 0 16 11" fill="none" xmlns="http://www.w3.org/2000/svg">
<path fill-rule="evenodd" clip-rule="evenodd" d="M9.89085 0.077666H15.0685C15.1524 0.0780037 15.2328 0.111496 15.2922 0.170847C15.3515 0.230198 15.385 0.310598 15.3853 0.394532V3.9147H15.4161C15.5084 3.91504 15.5969 3.95195 15.662 4.01735C15.7272 4.08275 15.7638 4.17132 15.7638 4.26364V4.6485C15.7634 4.7423 15.726 4.83216 15.6597 4.89849C15.5934 4.96481 15.5035 5.00223 15.4097 5.00256H12.9633C14.7811 5.1642 15.8202 6.85501 15.7073 9.05383H14.0896C14.0613 9.54414 13.8466 10.0051 13.4894 10.3422C13.1322 10.6793 12.6597 10.8671 12.1686 10.8671C11.6774 10.8671 11.2049 10.6793 10.8477 10.3422C10.4906 10.0051 10.2758 9.54414 10.2475 9.05383H5.37291C5.37314 9.01963 5.37305 8.98542 5.37262 8.95121V9.05383H5.37291C5.37141 9.26831 5.35675 9.48252 5.329 9.69527L4.31426 9.21676C4.28561 9.53061 4.18175 9.83294 4.01148 10.0981C3.84122 10.3634 3.60955 10.5836 3.33611 10.7403C3.06266 10.897 2.75548 10.9855 2.44058 10.9983C2.12568 11.0111 1.81234 10.9479 1.52707 10.8139C1.2418 10.6799 0.993019 10.4792 0.801782 10.2287C0.610544 9.97816 0.482484 9.68526 0.428445 9.37477C0.374405 9.06428 0.395977 8.74534 0.491335 8.44495C0.586693 8.14456 0.753027 7.87158 0.976256 7.6491L0 7.18343C0.811055 6.26107 1.7905 5.87196 2.97268 6.13439L2.97239 6.13661C3.23652 6.20132 3.37683 6.23582 3.43174 6.24932C3.4509 6.25403 3.45966 6.25619 3.45966 6.25618C3.45967 6.25617 3.45348 6.25463 3.44208 6.2518C3.38333 6.23722 3.18608 6.18824 2.98265 6.13661L2.97268 6.13439C3.17904 4.58477 3.63604 3.07902 4.3258 1.67611L3.72029 1.66713C3.6874 1.66713 3.65409 1.66924 3.62129 1.67131C3.52614 1.67733 3.43527 1.68308 3.37135 1.63634C3.29501 1.6308 3.22124 1.60632 3.15673 1.5651C3.09222 1.52389 3.03901 1.46725 3.00189 1.40029C2.91448 1.25342 2.87004 1.08497 2.87361 0.91409C2.87007 0.742811 2.91451 0.573956 3.00189 0.426604C3.06018 0.327477 3.15076 0.251389 3.25846 0.211083C3.25653 0.198328 3.25653 0.185353 3.25846 0.172598C3.37424 -0.016186 3.58159 -0.00569128 3.78953 0.00483258C3.83734 0.00725273 3.88519 0.00967442 3.93196 0.00967442L4.17571 0.0250687C4.35635 0.0498364 4.53055 0.109065 4.68885 0.199538L4.96723 0.356046H5.19302L5.95247 0.502292C5.97219 0.506176 5.99058 0.50962 6.00767 0.512824C6.20519 0.549831 6.23138 0.554738 6.17825 0.834553C6.17039 0.87364 6.16011 0.912201 6.14746 0.95001C6.08916 1.12391 6.04346 1.11114 5.91284 1.07463C5.87677 1.06454 5.83422 1.05265 5.78313 1.04238L5.07371 0.897413C5.10065 1.18349 5.00957 1.53884 4.88256 1.94294C5.28923 2.28803 5.47396 2.77937 5.1943 3.42849L4.51695 5.51571C5.65356 6.32134 6.33604 7.05514 6.37581 8.24692H7.81646C8.74269 7.54519 8.58618 6.29569 7.57272 5.49775V5.00256V4.25337C7.57272 4.01476 7.70101 3.907 7.93833 3.9147H9.57398V0.394532C9.57432 0.310598 9.60781 0.230198 9.66716 0.170847C9.72651 0.111496 9.80691 0.0780037 9.89085 0.077666ZM3.12505 8.66256L2.15649 8.20971C1.9822 8.25043 1.82491 8.34438 1.70644 8.47853C1.58796 8.61268 1.51418 8.78038 1.49532 8.95836C1.47646 9.13635 1.51347 9.31578 1.60121 9.47178C1.68894 9.62778 1.82305 9.75261 1.98494 9.82894C2.14682 9.90527 2.32845 9.92932 2.50462 9.89776C2.68079 9.8662 2.84278 9.78059 2.96809 9.65281C3.09341 9.52503 3.17585 9.36141 3.20398 9.18466C3.2321 9.0079 3.20451 8.82678 3.12505 8.66641V8.66256ZM3.26616 0.418907C3.27771 0.74347 3.29823 1.1604 3.31363 1.44519C3.28337 1.41819 3.25704 1.3871 3.23537 1.35283C3.15686 1.21834 3.11732 1.06464 3.1212 0.908959C3.11729 0.753675 3.15683 0.600387 3.23537 0.466372L3.23538 0.466365C3.24564 0.450973 3.2559 0.435582 3.26616 0.422755V0.418907ZM13.0146 9.0564C13.0061 9.27509 12.9132 9.48198 12.7555 9.63369C12.5978 9.7854 12.3874 9.87014 12.1686 9.87014C11.9497 9.87014 11.7394 9.7854 11.5816 9.63369C11.4239 9.48198 11.331 9.27509 11.3225 9.0564H13.0146ZM10.2976 2.42266V2.73819C10.2976 2.7467 10.3043 2.76086 10.3043 2.76086C10.3043 2.76086 10.3144 2.77025 10.3205 2.77025L14.893 2.76673C14.899 2.76673 14.9049 2.76335 14.9092 2.75734C14.9135 2.75133 14.9159 2.74317 14.9159 2.73467V2.41914C14.916 2.41479 14.9156 2.41044 14.9145 2.40635C14.9134 2.40227 14.9117 2.39853 14.9096 2.39537C14.9075 2.39222 14.9049 2.3897 14.902 2.38799C14.8992 2.38627 14.8961 2.38539 14.893 2.38539L10.3205 2.38892C10.3174 2.38891 10.3143 2.38979 10.3115 2.39151C10.3086 2.39322 10.306 2.39574 10.3039 2.3989C10.3018 2.40205 10.3001 2.40579 10.299 2.40988C10.2979 2.41396 10.2975 2.41831 10.2976 2.42266ZM11.5814 1.58337V1.26784C11.5813 1.26349 11.5816 1.25914 11.5824 1.25506C11.5831 1.25097 11.5843 1.24723 11.5859 1.24408C11.5874 1.24092 11.5893 1.2384 11.5914 1.23669C11.5934 1.23497 11.5957 1.23409 11.5979 1.2341L14.9002 1.23057C14.9025 1.23057 14.9047 1.23145 14.9068 1.23317C14.9088 1.23488 14.9107 1.2374 14.9122 1.24055C14.9138 1.24371 14.915 1.24745 14.9158 1.25153C14.9165 1.25562 14.9169 1.25997 14.9168 1.26432V1.57985C14.9168 1.58835 14.915 1.59651 14.9119 1.60252C14.9088 1.60853 14.9046 1.61191 14.9002 1.61191L11.5979 1.61543C11.5935 1.61543 11.5862 1.60604 11.5862 1.60604C11.5862 1.60604 11.5814 1.59188 11.5814 1.58337Z" fill="#BF7300"/>
</svg>
