<svg width="22" height="20" viewBox="0 0 22 20" fill="none" xmlns="http://www.w3.org/2000/svg">
<path d="M1.9146 9.00013H21.0436C21.2972 9.00013 21.5405 9.10547 21.7199 9.29298C21.8992 9.4805 22 9.73482 22 10C22 10.2652 21.8992 10.5195 21.7199 10.707C21.5405 10.8945 21.2972 10.9999 21.0436 10.9999H1.9146C1.66094 10.9999 1.41766 10.8945 1.23829 10.707C1.05892 10.5195 0.958155 10.2652 0.958155 10C0.958155 9.73482 1.05892 9.4805 1.23829 9.29298C1.41766 9.10547 1.66094 9.00013 1.9146 9.00013Z" fill="black"/>
<path d="M2.31057 10L10.2433 18.291C10.4229 18.4787 10.5238 18.7333 10.5238 18.9989C10.5238 19.2644 10.4229 19.519 10.2433 19.7068C10.0638 19.8945 9.82017 20 9.56618 20C9.3122 20 9.06861 19.8945 8.88902 19.7068L0.280992 10.7079C0.191922 10.615 0.121254 10.5047 0.0730368 10.3832C0.0248195 10.2617 0 10.1315 0 10C0 9.86848 0.0248195 9.73826 0.0730368 9.61678C0.121254 9.49531 0.191922 9.38497 0.280992 9.29209L8.88902 0.293226C9.06861 0.105476 9.3122 0 9.56618 0C9.82017 0 10.0638 0.105476 10.2433 0.293226C10.4229 0.480976 10.5238 0.735619 10.5238 1.00114C10.5238 1.26665 10.4229 1.5213 10.2433 1.70905L2.31057 10Z" fill="black"/>
</svg>
